<svg width="511" height="462" viewBox="845 969 511 462" fill="none" xmlns="http://www.w3.org/2000/svg">
<defs>
<linearGradient id="wheelRing" x1="1112.5" y1="1090" x2="1112.5" y2="1267" gradientUnits="userSpaceOnUse">
<stop stop-color="#7AA3BD"/>
<stop offset="0.586538" stop-color="#B4C6D1"/>
<stop offset="1" stop-color="#6CBCEE"/>
</linearGradient>
</defs>

<path d="M948.609 1022.65C940.978 1020.52 935.29 1014.14 934.052 1006.31C932.974 1000.24 932.433 994.074 932.435 987.902V980.246C932.45 975.146 936.581 971.015 941.681 971H966.319C971.419 971.015 975.55 975.146 975.565 980.246V987.902C975.567 994.074 975.026 1000.24 973.948 1006.31C972.71 1014.14 967.022 1020.52 959.391 1022.65M944.565 1010.09H951.304M956.696 1010.09H963.435M948.609 1016.83H959.391V1033H948.609V1016.83ZM943.864 976.391H964.136C964.136 976.391 967.478 976.391 967.478 979.734V1000.01C967.478 1000.01 967.478 1003.35 964.136 1003.35H943.864C943.864 1003.35 940.522 1003.35 940.522 1000.01V979.734C940.522 979.734 940.522 976.391 943.864 976.391ZM959.391 991.999C959.391 994.977 956.978 997.39 954 997.39C951.022 997.39 948.609 994.977 948.609 991.999C948.609 989.87 951.304 986.042 952.949 984.047C953.205 983.728 953.591 983.543 954 983.543C954.409 983.543 954.796 983.728 955.051 984.047C956.696 986.042 959.391 989.87 959.391 991.999ZM954 1026.26C954.372 1026.26 954.674 1026.56 954.674 1026.93C954.674 1027.31 954.372 1027.61 954 1027.61C953.628 1027.61 953.326 1027.31 953.326 1026.93C953.326 1026.56 953.628 1026.26 954 1026.26Z" stroke="#B4C6D1" stroke-width="2" stroke-linecap="round" stroke-linejoin="round"/>
<path d="M1234.7 1029.13H1281.08C1283.77 1029.13 1285.96 1026.95 1285.96 1024.25C1285.96 1021.56 1283.77 1019.37 1281.08 1019.37L1234.7 1021.81M1234.7 1029.13C1232.68 1029.13 1231.04 1027.49 1231.04 1025.47C1231.04 1023.45 1232.68 1021.81 1234.7 1021.81M1234.7 1029.13C1236.73 1029.13 1238.37 1027.49 1238.37 1025.47C1238.37 1023.45 1236.73 1021.81 1234.7 1021.81M1259.11 1029.13L1272.59 1019.82L1268.87 992.525H1274.97M1274.97 992.525L1285.59 1022.4M1274.97 992.525H1266.43M1274.97 992.525L1279.86 985.203M1245.69 979.101C1245.69 982.471 1248.42 985.203 1251.79 985.203C1255.16 985.203 1257.89 982.471 1257.89 979.101C1257.89 975.732 1255.16 973 1251.79 973C1248.42 973 1245.69 975.732 1245.69 979.101ZM1258.51 991.973L1254.01 992.876L1250.29 989.147C1250.26 989.122 1250.23 989.118 1250.2 989.093C1249.95 988.85 1249.65 988.653 1249.33 988.512C1249.27 988.488 1249.22 988.476 1249.17 988.456C1248.84 988.328 1248.48 988.259 1248.13 988.254H1242.03C1240.3 988.258 1238.67 989.071 1237.63 990.45L1234.7 994.355C1233.69 995.703 1233.97 997.615 1235.31 998.626C1236.66 999.637 1238.57 999.364 1239.59 998.016L1242.33 994.355H1244.32L1242.71 1001.63C1242.69 1001.76 1242.69 1001.89 1242.69 1002.02C1242.69 1002.11 1242.64 1002.19 1242.64 1002.29V1007.39C1242.64 1008.24 1242.39 1009.06 1241.92 1009.76L1238.26 1015.24C1237.81 1015.91 1237.65 1016.74 1237.8 1017.53C1237.96 1018.32 1238.43 1019.02 1239.1 1019.47C1239.78 1019.92 1240.6 1020.08 1241.4 1019.92C1242.19 1019.76 1242.89 1019.3 1243.33 1018.62L1247 1013.14C1248.13 1011.44 1248.74 1009.44 1248.74 1007.39V1006.9L1251.42 1008.05L1252.43 1016.08C1252.62 1017.6 1253.91 1018.75 1255.45 1018.75C1255.57 1018.75 1255.7 1018.74 1255.83 1018.73C1256.63 1018.63 1257.36 1018.21 1257.86 1017.57C1258.36 1016.93 1258.58 1016.12 1258.48 1015.32L1257.43 1006.95C1257.19 1005.02 1255.94 1003.36 1254.15 1002.58L1249.23 1000.48L1249.91 997.391L1249.94 997.418C1250.97 998.45 1252.36 999.03 1253.82 999.029C1254.18 999.028 1254.54 998.992 1254.9 998.921L1259.72 997.957C1261.37 997.627 1262.45 996.02 1262.12 994.367C1261.78 992.714 1260.18 991.642 1258.52 991.973H1258.51Z" stroke="#B4C6D1" stroke-width="2" stroke-linecap="round" stroke-linejoin="round"/>
<path d="M1286.56 1234.43H1291.75L1294.86 1230.02L1299.01 1237.74L1302.11 1233.33H1307.89M1306 1267.03C1306 1267.03 1308.23 1261.45 1314.93 1261.45C1321.62 1261.45 1323.85 1265.91 1323.85 1265.91L1319.39 1252.53H1316.38C1315.03 1252.53 1313.98 1251.32 1314.17 1249.98L1314.38 1248.55C1314.69 1246.35 1316.58 1244.72 1318.8 1244.72H1324.52C1325.46 1244.72 1326.29 1245.31 1326.61 1246.19L1334.23 1267.14C1334.72 1268.47 1334.54 1269.95 1333.75 1271.14L1331.69 1274.23C1330.97 1275.3 1329.77 1275.95 1328.47 1275.95H1303.77M1297.24 1251.93L1280.5 1236.76C1271.4 1227.66 1284.77 1210.19 1297.24 1224.32C1309.71 1210.19 1323.02 1227.72 1313.98 1236.76L1297.24 1251.93Z" stroke="#B4C6D1" stroke-width="2" stroke-linecap="round" stroke-linejoin="round"/>
<path fill-rule="evenodd" clip-rule="evenodd" d="M894.517 1270.82L870.708 1249.26C857.768 1236.32 876.79 1211.47 894.517 1231.57C912.245 1211.47 931.181 1236.4 918.327 1249.26L894.517 1270.82ZM898.083 1237.74H890.915V1243.83H884.828V1250.99H890.915V1257.08H898.083V1250.99H904.171V1243.83H898.083V1237.74Z" stroke="#B4C6D1" stroke-width="2" stroke-linecap="round" stroke-linejoin="round"/>
<circle cx="1112.5" cy="1178.5" r="88" stroke="url(#wheelRing)" stroke-dasharray="10 10"/>
<circle cx="1173" cy="1115" r="6" fill="#B4C6D1"/>
<circle cx="1048" cy="1235" r="6" fill="#B4C6D1"/>
<path d="M1097.27 1367.33C1098.37 1367.88 1099.24 1368.83 1099.93 1369.99M1099.93 1369.99C1102.59 1374.44 1102.59 1382 1102.59 1382C1102.59 1391.33 1097.83 1394 1091.96 1394C1089.31 1394 1081.33 1392.67 1081.33 1380.67C1081.33 1363.33 1090.63 1351.33 1098.6 1351.33C1104.98 1351.33 1102.59 1364.67 1099.93 1369.99ZM1118.73 1367.33C1117.63 1367.88 1116.76 1368.83 1116.07 1369.99M1116.07 1369.99C1113.41 1374.44 1113.41 1382 1113.41 1382C1113.41 1391.33 1118.17 1394 1124.04 1394C1126.7 1394 1134.67 1392.67 1134.67 1380.67C1134.67 1363.33 1125.37 1351.33 1117.39 1351.33C1111.02 1351.33 1113.41 1364.67 1116.07 1369.99Z" stroke="#B4C6D1" stroke-width="2" stroke-linecap="round" stroke-linejoin="round"/>
<path d="M1113.33 1356.67L1108 1353.11M1108 1353.11L1102.67 1356.67M1108 1353.11V1346" stroke="#B4C6D1" stroke-width="2" stroke-linecap="round"/>

</svg>
